<mxfile host="app.diagrams.net" modified="2023-09-19T14:41:28.811Z" agent="Mozilla/5.0 (Macintosh; Intel Mac OS X 10_15_7) AppleWebKit/537.36 (KHTML, like Gecko) Chrome/116.0.0.0 Safari/537.36" etag="89kmRKpDtmvHpxiV_lg5" version="21.7.4" type="device">
  <diagram name="Page-1" id="yuHwd-v4a7XSz-UGZoRl">
    <mxGraphModel dx="1432" dy="765" grid="1" gridSize="10" guides="1" tooltips="1" connect="1" arrows="1" fold="1" page="1" pageScale="1" pageWidth="827" pageHeight="1169" math="0" shadow="0">
      <root>
        <mxCell id="0" />
        <mxCell id="1" parent="0" />
        <mxCell id="kfWuxYNZezF0UD8GJ-Rv-2" value="main" style="swimlane;fontStyle=0;childLayout=stackLayout;horizontal=1;startSize=30;horizontalStack=0;resizeParent=1;resizeParentMax=0;resizeLast=0;collapsible=1;marginBottom=0;whiteSpace=wrap;html=1;" vertex="1" parent="1">
          <mxGeometry x="80" y="40" width="240" height="120" as="geometry" />
        </mxCell>
        <mxCell id="kfWuxYNZezF0UD8GJ-Rv-3" value="&lt;pre style=&quot;background-color:#ffffff;color:#080808;font-family:&#39;JetBrains Mono&#39;,monospace;font-size:9.8pt;&quot;&gt;init_simulation_struct&lt;/pre&gt;" style="text;strokeColor=none;fillColor=none;align=left;verticalAlign=middle;spacingLeft=4;spacingRight=4;overflow=hidden;points=[[0,0.5],[1,0.5]];portConstraint=eastwest;rotatable=0;whiteSpace=wrap;html=1;" vertex="1" parent="kfWuxYNZezF0UD8GJ-Rv-2">
          <mxGeometry y="30" width="240" height="30" as="geometry" />
        </mxCell>
        <mxCell id="kfWuxYNZezF0UD8GJ-Rv-4" value="Item 2" style="text;strokeColor=none;fillColor=none;align=left;verticalAlign=middle;spacingLeft=4;spacingRight=4;overflow=hidden;points=[[0,0.5],[1,0.5]];portConstraint=eastwest;rotatable=0;whiteSpace=wrap;html=1;" vertex="1" parent="kfWuxYNZezF0UD8GJ-Rv-2">
          <mxGeometry y="60" width="240" height="30" as="geometry" />
        </mxCell>
        <mxCell id="kfWuxYNZezF0UD8GJ-Rv-5" value="Item 3" style="text;strokeColor=none;fillColor=none;align=left;verticalAlign=middle;spacingLeft=4;spacingRight=4;overflow=hidden;points=[[0,0.5],[1,0.5]];portConstraint=eastwest;rotatable=0;whiteSpace=wrap;html=1;" vertex="1" parent="kfWuxYNZezF0UD8GJ-Rv-2">
          <mxGeometry y="90" width="240" height="30" as="geometry" />
        </mxCell>
      </root>
    </mxGraphModel>
  </diagram>
</mxfile>
